<svg id="Camada_1" data-name="Camada 1" xmlns="http://www.w3.org/2000/svg" viewBox="0 0 486.07 181.67"><defs><style>.cls-1{fill:#32af80;}.cls-2,.cls-4{fill:#026346;}.cls-3{fill:#fff;opacity:0.3;}.cls-4{font-size:91.93px;font-family:Flanella;}.cls-5{fill:#1d1d1b;}</style></defs><path class="cls-1" d="M166.9,220.12a3.5,3.5,0,0,1,6.3.15l11.82,26h31.24a3.51,3.51,0,0,1,2.92,1.56l3,4.54,2.87-4.48a3.49,3.49,0,0,1,3-1.62h6l13.7-38.63a3.5,3.5,0,0,1,6.77.4l11.24,56.22,12.38-46.48a3.5,3.5,0,0,1,6.72-.16l11.62,36.48,7.08-11.28a3.49,3.49,0,0,1,3-1.63h26a80.31,80.31,0,0,0-8.43-49.94c-10.53-19.63-28.14-31.93-46-32.11h-.43c-12.74,0-30.91,5.9-47.67,32.7-16.94-27.1-35.33-32.8-48.09-32.69-17.82.18-35.44,12.48-46,32.11-7.64,14.24-12.28,34.39-7.42,55h24.92Z" transform="translate(-10.61 -159.16)"/><path class="cls-2" d="M298.38,264.23a3.51,3.51,0,0,1-4.47,1.31A3.66,3.66,0,0,1,292,263.3l-10.23-32.11-13.17,49.43a3.48,3.48,0,0,1-3.34,2.59.38.38,0,0,1-.15,0,3.5,3.5,0,0,1-3.32-2.81l-11.7-58.52L239.81,251a3.49,3.49,0,0,1-3.3,2.33h-6.58l-4.71,7.39a3.5,3.5,0,0,1-5.87.06l-5-7.45H182.76a3.48,3.48,0,0,1-3.18-2.05l-9.76-21.49L158.71,251.4a3.49,3.49,0,0,1-3.11,1.9h-25A75.51,75.51,0,0,0,138.7,270c16.76,25.82,46.13,48.76,89.78,70.12l1.54.76,1.54-.76c43.65-21.36,73-44.3,89.79-70.12A75.06,75.06,0,0,0,331,248.22H308.45Z" transform="translate(-10.61 -159.16)"/><path class="cls-3" d="M228.48,340.08l1.54.76.61-.3q-2-1.11-4-2.34c-12.77-8.11-23.18-19.4-32.94-31-10.7-12.67-20.88-25.95-28.33-40.77-1.14-2.28-2.23-4.6-3.25-7-1.18-2.76-2.26-5.59-3.23-8.47l-.19.38a3.49,3.49,0,0,1-3.11,1.9h-25A75.51,75.51,0,0,0,138.7,270C155.46,295.78,184.83,318.72,228.48,340.08Z" transform="translate(-10.61 -159.16)"/><path class="cls-3" d="M128.54,246.3h24.92l2.65-5.17a74.6,74.6,0,0,1-1.6-24.31c2.45-22.33,16.69-43.43,34.58-56.55l.61-.44a42.22,42.22,0,0,0-7.27-.66c-18,.22-35.82,12.62-46.43,32.39a81.37,81.37,0,0,0-9.34,33.78v.13c0,.76-.06,1.53-.08,2.31A76,76,0,0,0,128.54,246.3Z" transform="translate(-10.61 -159.16)"/><text class="cls-4" transform="translate(0 112.5) scale(1.14 1)">M</text><text class="cls-4" transform="translate(359.1 107.67) scale(1.14 1)">aude</text><path class="cls-5" d="M372.93,246.24" transform="translate(-10.61 -159.16)"/><path class="cls-2" d="M374.63,196.24a4.78,4.78,0,0,0-1.71-2.9,3.75,3.75,0,0,0-3.18-.69,6.2,6.2,0,0,0-3.93,2.53,22.37,22.37,0,0,0-2.45,4.19,24.28,24.28,0,0,0-1.52,5.69,33.3,33.3,0,0,0-.32,5.89c.06,1.28.18,2.57.37,3.86s.4,2.54.64,3.77c-.68.86-1.35,1.68-2,2.48s-1.35,1.62-2,2.48c-.49.55-3.11,3.83-3.54,4.38-1.36,1.72-5.1,6.45-6.42,8.14a39.15,39.15,0,0,0-3.56,5.38,32.91,32.91,0,0,0-2.08,4.41,25.65,25.65,0,0,0-1.29,4.73,19.67,19.67,0,0,0-.23,4.83,14.55,14.55,0,0,0,1.11,4.59,20.37,20.37,0,0,1-2.63-1.65,13.73,13.73,0,0,1-2.27-2.11,16.44,16.44,0,0,1-3.37-5.11,12.4,12.4,0,0,1-1.05-3h-2.06a17.15,17.15,0,0,0,.84,2.73,20.78,20.78,0,0,0,6.51,8.59,19.23,19.23,0,0,0,6,3.13,20.08,20.08,0,0,0,2.08,4.55,14.14,14.14,0,0,0,1.8,2.3,4.91,4.91,0,0,1,.81-.53,21.53,21.53,0,0,1-3.12-5.86l.09.09h.19a19.51,19.51,0,0,0,7,.19A16.8,16.8,0,0,0,363.73,257a21.12,21.12,0,0,0,2.59-4.59,24.69,24.69,0,0,0,1.48-5.15,32,32,0,0,0,.46-5.33,38,38,0,0,0-.46-5.84q-.46-2.9-1.16-5.79t-1.43-5.75q-.73-2.85-1.29-5.7c1.54-2,3-4.07,4.43-6.16a42.19,42.19,0,0,0,3.69-6.61q1-2.12,2-4.74A9.27,9.27,0,0,0,374.63,196.24Zm-10.42,33.57a55.51,55.51,0,0,1,1.61,8.68,38.35,38.35,0,0,1,.14,5.7,25,25,0,0,1-.92,5.7,21.29,21.29,0,0,1-2.31,5.24,15.34,15.34,0,0,1-3.83,4.23,13,13,0,0,1-7.11,2.62,16.8,16.8,0,0,1-7.48-1.24,26.19,26.19,0,0,1,.09-10.94,32.44,32.44,0,0,1,2.22-6.76,44.83,44.83,0,0,1,3.41-6.2c.86-1.23,1.72-2.42,2.59-3.59s1.75-2.35,2.68-3.58l.64-.92c.43-.49.85-1,1.25-1.52l1.15-1.51c.68-.8,1.31-1.57,1.9-2.3l1.8-2.3C362.71,224.06,363.44,227,364.21,229.81Zm8.08-29.1a32.78,32.78,0,0,1-3.79,9.15,85.54,85.54,0,0,1-5.73,8.32c-.12-.67-.23-1.36-.32-2.07s-.17-1.42-.23-2.16a40.43,40.43,0,0,1,.09-7.12,20.36,20.36,0,0,1,1.94-6.85,17.33,17.33,0,0,1,1.8-3,5,5,0,0,1,2.73-1.88,2.94,2.94,0,0,1,2.31,0,2.44,2.44,0,0,1,1.15,1.37,6.3,6.3,0,0,1,.32,2.12A7.46,7.46,0,0,1,372.29,200.71Z" transform="translate(-10.61 -159.16)"/><path class="cls-2" d="M130.57,253.3a61.41,61.41,0,0,1-3.79,4.89,34.73,34.73,0,0,1-4.33,4.13,31.85,31.85,0,0,1-4.23,2.94,8.9,8.9,0,0,1-5.18,1.2c-2.3-.12-3.86-.8-4.7-2a7.07,7.07,0,0,1-1.2-4.28,17.19,17.19,0,0,1,.89-5c.55-1.71,1-3.15,1.46-4.32a1,1,0,0,1,1.36-.69.94.94,0,0,1,.83,1.24c-.41,1.41-.9,2.82-1.46,4.23a15.66,15.66,0,0,0-1,4.32,4.85,4.85,0,0,0,1.51,4.37c1.22,1.13,2.91,1.46,5.07,1a11.69,11.69,0,0,0,4.39-2.25q2-1.61,3.66-3.17a38.68,38.68,0,0,0,3.08-3.22,39.13,39.13,0,0,0,2.66-3.3m-15.71-8a1.14,1.14,0,0,1-.42,1,1.53,1.53,0,0,1-1,.32,1.55,1.55,0,0,1-1-.32,1.14,1.14,0,0,1-.42-1v-.1a1,1,0,0,1,.42-.92,1.79,1.79,0,0,1,1-.27,1.77,1.77,0,0,1,1,.27,1,1,0,0,1,.42.92Z" transform="translate(-10.61 -159.16)"/></svg>