<svg id="Camada_1" data-name="Camada 1" xmlns="http://www.w3.org/2000/svg" viewBox="0 0 49.38 43.35"><defs><style>.cls-1{fill:#32af80;}.cls-2{fill:#026346;}.cls-3{fill:#fff;opacity:0.3;}</style></defs><path class="cls-1" d="M9.94,19a.83.83,0,0,1,1.5,0l2.82,6.21h7.46a.82.82,0,0,1,.69.37l.72,1.09.69-1.07a.84.84,0,0,1,.7-.39H26L29.23,16a.85.85,0,0,1,.53-.53.83.83,0,0,1,1.08.63l2.69,13.42,2.95-11.1a.86.86,0,0,1,.79-.62.85.85,0,0,1,.81.59l2.78,8.7,1.69-2.69a.84.84,0,0,1,.7-.39h6.21a19.2,19.2,0,0,0-2-11.92c-2.52-4.68-6.72-7.62-11-7.66h-.1C33.33,4.42,29,5.83,25,12.22c-4-6.47-8.43-7.83-11.48-7.8-4.25,0-8.45,3-11,7.66A19.06,19.06,0,0,0,.78,25.21h6Z" transform="translate(-0.31 -4.42)"/><path class="cls-2" d="M41.31,29.49a.82.82,0,0,1-1.06.31.85.85,0,0,1-.45-.53l-2.44-7.66L34.22,33.4a.84.84,0,0,1-.8.62h0a.84.84,0,0,1-.79-.67l-2.79-14-2.46,6.94a.84.84,0,0,1-.79.55H25l-1.13,1.77a.83.83,0,0,1-.69.38.85.85,0,0,1-.71-.37l-1.18-1.78H13.72a.83.83,0,0,1-.76-.49l-2.33-5.13L8,26.43a.82.82,0,0,1-.74.45h-6a18,18,0,0,0,1.94,4c4,6.16,11,11.63,21.42,16.73l.37.18.37-.18C35.78,42.49,42.79,37,46.79,30.86a17.73,17.73,0,0,0,2.31-5.19H43.71Z" transform="translate(-0.31 -4.42)"/><path class="cls-3" d="M24.63,47.59l.37.18.15-.07c-.33-.18-.64-.36-.95-.56a35.51,35.51,0,0,1-7.86-7.38A50.52,50.52,0,0,1,9.57,30c-.27-.54-.53-1.09-.77-1.66S8.26,27,8,26.34l0,.09a.82.82,0,0,1-.74.45h-6a18,18,0,0,0,1.94,4C7.21,37,14.22,42.49,24.63,47.59Z" transform="translate(-0.31 -4.42)"/><path class="cls-3" d="M.78,25.21h6L7.36,24A18,18,0,0,1,7,18.18c.58-5.33,4-10.37,8.25-13.5l.15-.1a10,10,0,0,0-1.74-.16c-4.3,0-8.55,3-11.08,7.73A19.5,19.5,0,0,0,.33,20.21v0c0,.18,0,.37,0,.55A18.22,18.22,0,0,0,.78,25.21Z" transform="translate(-0.31 -4.42)"/></svg>